<?xml version="1.0" standalone="no"?>
<!DOCTYPE svg PUBLIC "-//W3C//DTD SVG 20010904//EN"
 "http://www.w3.org/TR/2001/REC-SVG-20010904/DTD/svg10.dtd">
<svg version="1.0" xmlns="http://www.w3.org/2000/svg"
 width="357.000000pt" height="141.000000pt" viewBox="0 0 357.000000 141.000000"
 preserveAspectRatio="xMidYMid meet">

<g transform="translate(0.000000,141.000000) scale(0.100000,-0.100000)"
fill="#000000" stroke="none">
<path d="M0 1298 c0 -108 1 -112 15 -83 50 98 169 82 152 -20 -8 -48 22 -85
69 -85 45 0 74 29 74 75 0 30 -5 39 -35 56 -60 36 -71 80 -30 119 35 33 103
31 156 -5 69 -45 87 -129 48 -215 l-20 -44 32 -73 c17 -40 35 -73 39 -73 4 0
33 44 65 98 74 124 81 132 121 132 38 0 52 -16 130 -147 27 -46 51 -83 54 -83
4 0 21 31 40 69 l33 69 -21 51 c-49 113 -5 217 104 241 112 26 167 -76 74
-135 -34 -21 -40 -31 -40 -58 0 -68 83 -102 129 -53 18 19 21 30 15 63 -17
106 122 112 156 7 15 -46 8 -112 -16 -149 -20 -31 -105 -75 -145 -75 -25 0
-35 -17 -147 -245 -159 -322 -163 -324 -293 -145 -58 80 -75 98 -84 87 -145
-203 -163 -220 -210 -199 -20 9 -52 65 -145 257 -113 233 -120 245 -147 245
-66 0 -152 60 -166 115 -2 11 -5 -231 -6 -537 l-1 -558 1785 0 1785 0 0 393
c-1 333 -3 387 -14 356 -17 -49 -50 -93 -92 -125 -22 -17 -34 -35 -34 -51 0
-123 -201 -156 -249 -41 l-16 38 -75 0 -76 0 -12 -34 c-25 -67 -114 -95 -188
-60 -33 16 -64 57 -64 86 0 8 -13 13 -31 14 -87 3 -134 87 -93 165 28 55 54
59 363 59 270 0 281 1 291 20 7 14 8 26 0 39 -9 18 -25 20 -248 23 -221 3
-240 4 -277 25 -47 25 -96 75 -121 123 -27 52 -25 181 3 235 29 54 92 113 139
130 35 13 1 14 -296 14 -308 0 -331 -1 -282 -15 101 -27 167 -76 210 -158 24
-45 27 -62 27 -146 0 -86 -3 -100 -30 -149 -16 -29 -45 -65 -65 -79 -19 -14
-39 -29 -44 -33 -5 -5 16 -39 47 -77 101 -125 113 -160 82 -226 -29 -60 -121
-87 -174 -50 -12 9 -74 81 -137 160 l-114 144 -130 0 -130 0 0 -116 c0 -89 -4
-122 -16 -144 -36 -59 -119 -78 -182 -40 -62 38 -63 50 -60 468 3 418 2 412
71 446 29 14 -32 16 -760 16 l-793 0 0 -112z m626 -1148 l21 -65 20 60 c11 33
23 60 27 60 5 0 18 -27 31 -60 l22 -60 18 63 c10 34 22 65 26 68 25 15 24 -15
-2 -103 -16 -53 -29 -98 -29 -100 0 -1 -4 -3 -9 -3 -5 0 -19 28 -32 62 l-23
61 -22 -58 c-12 -33 -26 -61 -31 -62 -8 -3 -63 166 -63 196 0 33 27 -2 46 -59z
m504 -35 c0 -87 -3 -105 -15 -105 -12 0 -15 18 -15 98 0 54 3 102 7 105 18 19
23 -2 23 -98z m150 0 l0 -105 -37 0 c-63 0 -94 50 -56 92 9 10 27 18 40 18 21
0 23 5 23 43 0 43 5 57 22 57 4 0 8 -47 8 -105z m292 75 c23 -29 23 -45 -2
-70 l-20 -20 20 -40 c24 -47 24 -50 6 -50 -8 0 -25 19 -38 42 -13 24 -31 44
-41 46 -14 3 -17 -4 -17 -42 0 -34 -4 -46 -15 -46 -12 0 -15 18 -15 106 l0
107 52 -5 c38 -4 57 -12 70 -28z m226 -23 c3 -40 6 -47 24 -47 28 0 58 -28 58
-53 0 -34 -29 -57 -72 -57 l-38 0 0 106 c0 80 3 105 13 102 6 -3 13 -25 15
-51z m560 37 c28 -19 19 -36 -14 -28 -13 3 -31 3 -40 0 -15 -6 -15 -8 1 -26
10 -11 24 -20 31 -20 15 0 54 -47 54 -66 0 -24 -39 -54 -68 -54 -34 0 -71 35
-55 51 7 7 14 5 23 -6 26 -31 78 -9 59 27 -5 10 -15 18 -22 18 -7 0 -25 11
-41 23 -24 19 -28 28 -22 51 10 41 57 56 94 30z m-258 -49 c0 -16 6 -25 15
-25 8 0 15 -7 15 -15 0 -8 -7 -15 -15 -15 -11 0 -15 -12 -15 -45 0 -33 -4 -45
-15 -45 -11 0 -15 12 -15 44 0 30 -5 46 -15 50 -8 3 -15 10 -15 16 0 5 7 10
15 10 8 0 15 8 15 18 0 10 3 22 7 25 13 14 23 6 23 -18z m940 -1 c0 -16 -16
-19 -25 -4 -8 13 4 32 16 25 5 -4 9 -13 9 -21z m98 -2 c2 -12 8 -22 13 -22 5
0 9 -7 9 -15 0 -8 -6 -15 -12 -15 -8 0 -13 -15 -13 -42 0 -24 -5 -43 -12 -45
-9 -3 -13 9 -13 41 0 34 -4 46 -15 46 -8 0 -15 6 -15 14 0 8 7 16 15 20 8 3
15 15 15 27 0 27 24 20 28 -9z m-2208 -52 c11 -11 20 -27 20 -35 0 -23 -37
-55 -64 -55 -25 0 -56 32 -56 57 0 20 38 53 60 53 11 0 29 -9 40 -20z m128 -4
c3 -16 0 -18 -22 -12 -25 6 -26 4 -26 -34 0 -29 -4 -40 -15 -40 -12 0 -15 13
-15 56 l0 55 37 -3 c28 -2 39 -8 41 -22z m656 8 c9 -8 16 -28 16 -44 0 -54
-72 -68 -99 -19 -13 24 -13 29 2 53 20 30 57 35 81 10z m288 -1 c22 -20 23
-42 2 -71 -29 -41 -94 -19 -94 33 0 49 55 72 92 38z m456 -27 c3 -29 7 -36 20
-34 12 2 18 15 20 41 2 24 8 37 18 37 10 0 14 -14 14 -55 l0 -55 -39 0 c-46 0
-58 13 -61 60 -3 48 -2 52 13 48 6 -3 13 -21 15 -42z m278 26 c19 -19 19 -92
0 -92 -10 0 -16 13 -18 37 -2 26 -8 39 -20 41 -13 2 -17 -5 -20 -34 -4 -51
-26 -56 -30 -7 -2 30 -7 38 -23 38 -16 0 -21 -8 -23 -37 -2 -25 -8 -38 -18
-38 -10 0 -14 14 -14 55 l0 54 76 -1 c50 -1 81 -7 90 -16z m222 5 c18 -12 16
-97 -3 -97 -11 0 -15 11 -15 40 0 33 -3 40 -19 40 -16 0 -20 -8 -23 -37 -4
-50 -26 -55 -30 -6 -2 30 -7 38 -23 38 -16 0 -21 -8 -23 -37 -2 -25 -8 -38
-18 -38 -10 0 -14 14 -14 54 l0 54 78 -2 c42 -1 83 -5 90 -9z m82 -42 c0 -42
-3 -55 -15 -55 -12 0 -15 13 -15 55 0 42 3 55 15 55 12 0 15 -13 15 -55z"/>
<path d="M1204 75 c-4 -9 -2 -21 4 -27 15 -15 44 -1 40 19 -4 23 -36 29 -44 8z"/>
<path d="M1480 154 c0 -23 3 -25 33 -22 24 2 33 8 35 26 3 19 -1 22 -32 22
-32 0 -36 -3 -36 -26z"/>
<path d="M1804 75 c-4 -9 -2 -21 4 -27 15 -15 44 -1 40 19 -4 23 -36 29 -44 8z"/>
<path d="M867 77 c-8 -20 9 -41 27 -34 23 9 21 47 -3 47 -10 0 -21 -6 -24 -13z"/>
<path d="M1654 75 c-4 -9 -2 -21 4 -27 15 -15 44 -1 40 19 -4 23 -36 29 -44 8z"/>
<path d="M1940 70 c0 -24 29 -38 40 -20 12 19 1 40 -21 40 -12 0 -19 -7 -19
-20z"/>
<path d="M3350 1403 c8 -3 27 -17 43 -31 49 -46 33 -139 -30 -171 -14 -7 -95
-11 -226 -11 -220 0 -232 -3 -225 -52 l3 -23 230 -5 c215 -5 233 -6 277 -28
59 -29 114 -92 133 -152 12 -41 14 -23 14 218 l1 262 -117 -1 c-65 0 -111 -3
-103 -6z"/>
<path d="M1742 1093 l3 -78 182 0 c178 0 182 0 207 24 32 30 34 69 5 105 l-20
26 -190 0 -190 0 3 -77z m142 41 c21 -20 20 -53 -1 -76 -32 -35 -85 -12 -85
37 0 48 54 72 86 39z m190 0 c31 -31 7 -94 -36 -94 -22 0 -58 34 -58 55 0 21
36 55 59 55 11 0 27 -7 35 -16z"/>
</g>
</svg>
