<?xml version="1.0" standalone="no"?>
<!DOCTYPE svg PUBLIC "-//W3C//DTD SVG 20010904//EN"
 "http://www.w3.org/TR/2001/REC-SVG-20010904/DTD/svg10.dtd">
<svg version="1.0" xmlns="http://www.w3.org/2000/svg"
 width="138.000000pt" height="40.000000pt" viewBox="0 0 138.000000 40.000000"
 preserveAspectRatio="xMidYMid meet">

<g transform="translate(0.000000,40.000000) scale(0.100000,-0.100000)"
fill="#000000" stroke="none">
<path d="M72 320 c-97 -102 -96 -107 25 -224 64 -61 97 -86 108 -82 13 5 10
13 -19 42 -86 88 -100 222 -34 317 39 54 -7 25 -80 -53z"/>
<path d="M249 365 c0 -3 -1 -29 -1 -57 -1 -65 19 -113 64 -155 l33 -33 44 40
c23 22 41 44 39 49 -7 21 -149 161 -163 161 -8 0 -15 -2 -16 -5z"/>
<path d="M480 235 c0 -9 9 -15 25 -15 16 0 25 6 25 15 0 9 -9 15 -25 15 -16 0
-25 -6 -25 -15z"/>
<path d="M730 175 c0 -73 1 -75 24 -75 23 0 25 5 28 48 l3 47 22 -47 c15 -34
28 -48 42 -48 14 0 27 14 43 48 l22 47 4 -47 c3 -40 6 -48 23 -48 17 0 19 7
19 75 l0 75 -31 0 c-27 0 -33 -5 -52 -50 -11 -27 -24 -50 -28 -50 -3 0 -16 23
-27 50 -20 47 -23 50 -56 50 l-36 0 0 -75z"/>
<path d="M990 175 c0 -73 1 -75 24 -75 20 0 25 6 28 32 4 44 22 45 46 3 16
-25 28 -35 47 -35 25 0 25 0 10 30 -14 27 -14 31 0 36 10 4 15 19 15 45 0 35
-3 39 -25 39 -22 0 -25 -4 -25 -35 0 -33 -2 -35 -35 -35 -32 0 -35 2 -35 29 0
25 5 30 28 34 15 2 3 5 -25 6 l-53 1 0 -75z"/>
<path d="M1190 175 l0 -75 88 2 c83 1 84 2 27 7 -56 6 -60 8 -63 34 -3 27 -2
27 52 27 31 0 56 5 56 10 0 6 -25 10 -56 10 -52 0 -55 1 -52 23 3 19 10 23 63
28 57 5 56 6 -27 7 l-88 2 0 -75z"/>
<path d="M480 155 c0 -52 1 -55 25 -55 24 0 25 3 25 55 0 52 -1 55 -25 55 -24
0 -25 -3 -25 -55z"/>
<path d="M560 155 l0 -55 73 2 c68 1 69 1 22 7 -49 6 -50 6 -53 44 l-3 37 50
0 c28 0 51 5 51 10 0 6 -30 10 -70 10 l-70 0 0 -55z"/>
</g>
</svg>
