<?xml version="1.0" standalone="no"?>
<!DOCTYPE svg PUBLIC "-//W3C//DTD SVG 20010904//EN"
 "http://www.w3.org/TR/2001/REC-SVG-20010904/DTD/svg10.dtd">
<svg version="1.0" xmlns="http://www.w3.org/2000/svg"
 width="619.000000pt" height="151.000000pt" viewBox="0 0 619.000000 151.000000"
 preserveAspectRatio="xMidYMid meet">

<g transform="translate(0.000000,151.000000) scale(0.100000,-0.100000)"
fill="#000000" stroke="none">
<path d="M3179 1384 c-87 -73 -428 -387 -433 -400 -15 -40 -5 -68 44 -117 45
-45 53 -49 82 -43 18 4 51 24 73 45 22 21 119 109 215 196 96 87 181 169 188
182 18 34 9 62 -35 112 -51 55 -88 62 -134 25z"/>
<path d="M3613 1290 c-12 -5 -26 -18 -32 -29 -15 -26 -15 -604 0 -707 17 -121
43 -181 108 -245 87 -86 227 -129 416 -129 213 0 380 65 459 178 60 87 68 142
73 509 3 182 2 348 -1 368 -6 30 -14 39 -44 52 -41 17 -96 12 -122 -12 -17
-15 -19 -46 -22 -373 -5 -409 -10 -438 -79 -504 -57 -55 -126 -73 -274 -73
-114 0 -123 2 -186 31 -69 33 -105 71 -130 134 -10 26 -14 128 -17 402 -3 343
-5 367 -22 383 -22 20 -95 29 -127 15z"/>
<path d="M4802 1280 c-12 -5 -27 -21 -32 -36 -7 -17 -10 -205 -8 -521 l3 -495
24 -19 c31 -25 101 -25 132 0 l24 19 5 293 5 293 28 16 c56 31 67 14 201 -307
67 -161 130 -301 141 -313 14 -16 30 -20 80 -20 35 0 69 6 79 13 10 8 76 148
146 313 113 265 130 300 154 309 20 7 34 5 54 -6 l27 -15 2 -289 c3 -281 4
-291 24 -308 31 -25 113 -23 139 3 19 19 20 33 20 528 0 603 14 547 -136 547
-72 0 -97 -4 -109 -16 -9 -8 -86 -182 -172 -385 -85 -203 -162 -377 -171 -386
-18 -21 -61 -23 -85 -5 -9 6 -84 179 -167 382 -84 204 -160 379 -171 390 -17
17 -35 20 -117 22 -53 2 -107 -2 -120 -7z"/>
<path d="M245 1268 c-11 -6 -23 -16 -27 -22 -4 -6 -8 -239 -8 -517 0 -405 3
-509 13 -523 9 -12 31 -20 63 -23 40 -4 54 -1 77 17 l27 21 0 329 c0 328 0
329 22 344 34 24 61 19 95 -16 17 -18 146 -175 288 -348 141 -173 267 -323
278 -333 31 -27 162 -21 183 8 12 16 14 106 14 524 0 278 -4 511 -8 517 -25
38 -105 45 -146 13 l-26 -20 0 -328 c0 -305 -1 -329 -18 -344 -29 -26 -65 -21
-99 16 -17 17 -149 176 -293 352 -145 176 -272 325 -284 332 -27 15 -125 16
-151 1z"/>
<path d="M1422 1264 l-22 -15 0 -518 c0 -489 1 -519 18 -534 17 -15 57 -17
365 -17 334 0 348 1 367 20 11 11 20 33 20 50 0 17 -9 39 -20 50 -19 19 -33
20 -298 20 -258 0 -280 1 -295 18 -14 16 -17 43 -17 164 0 128 2 147 18 161
16 15 50 17 269 17 272 0 267 -1 279 58 5 25 1 36 -19 56 l-26 26 -250 0
c-237 0 -251 1 -261 19 -5 11 -10 76 -10 144 0 107 2 126 18 140 16 15 51 17
285 17 298 0 297 0 297 70 0 70 0 70 -370 70 -278 0 -329 -2 -348 -16z"/>
<path d="M2349 1142 c-25 -11 -75 -56 -88 -80 -7 -13 -8 -29 -2 -44 8 -20 142
-173 307 -350 67 -72 94 -76 154 -22 70 63 67 70 -136 294 -155 171 -193 209
-214 209 -3 0 -12 -3 -21 -7z"/>
<path d="M3239 992 c-87 -83 -90 -99 -28 -171 70 -81 92 -78 197 22 77 74 78
91 16 163 -39 46 -51 54 -80 54 -29 0 -46 -11 -105 -68z"/>
<path d="M3024 821 c-41 -25 -74 -68 -74 -97 0 -16 55 -84 181 -224 209 -230
210 -231 287 -161 68 62 67 64 -139 291 -99 110 -184 200 -189 200 -5 0 -14 2
-22 5 -7 3 -27 -3 -44 -14z"/>
<path d="M2405 700 c-11 -4 -50 -36 -87 -70 -86 -78 -88 -99 -22 -170 73 -78
87 -77 188 17 56 52 66 66 66 95 0 27 -9 43 -47 79 -54 52 -69 60 -98 49z"/>
<path d="M2815 620 c-16 -10 -122 -104 -235 -207 -195 -180 -205 -190 -208
-228 -2 -35 3 -45 39 -82 46 -49 77 -60 110 -42 42 22 450 400 459 425 11 28
5 48 -29 92 -26 34 -69 62 -93 62 -7 0 -26 -9 -43 -20z"/>
</g>
</svg>
