<?xml version="1.0" standalone="no"?>
<!DOCTYPE svg PUBLIC "-//W3C//DTD SVG 20010904//EN"
 "http://www.w3.org/TR/2001/REC-SVG-20010904/DTD/svg10.dtd">
<svg version="1.0" xmlns="http://www.w3.org/2000/svg"
 width="394.000000pt" height="130.000000pt" viewBox="0 0 394.000000 130.000000"
 preserveAspectRatio="xMidYMid meet">

<g transform="translate(0.000000,130.000000) scale(0.100000,-0.100000)"
fill="#000000" stroke="none">
<path d="M546 1240 c-220 -40 -415 -221 -471 -438 -20 -78 -21 -239 -1 -302
10 -35 18 -44 32 -42 11 2 42 7 69 13 86 16 218 -11 363 -72 l43 -19 -7 23
c-3 12 -13 34 -20 49 -17 33 -18 80 -2 96 17 17 28 15 28 -4 0 -19 51 -136 57
-131 2 2 -4 23 -12 47 -8 23 -15 60 -15 81 0 34 3 39 23 39 26 0 102 -34 194
-88 94 -55 134 -67 178 -52 19 6 35 16 35 21 0 5 11 9 25 9 29 0 29 -2 11 -64
-14 -46 -14 -47 7 -40 62 18 140 90 154 142 5 15 8 79 8 142 0 94 -4 128 -24
188 -59 180 -198 317 -388 383 -67 23 -213 33 -287 19z m-141 -259 c8 -46 19
-58 58 -63 39 -4 38 -21 -2 -29 -41 -8 -50 -22 -52 -74 -1 -37 -14 -96 -19
-85 -1 3 -7 37 -14 75 l-11 70 -43 13 c-45 15 -48 32 -4 32 40 0 53 13 59 59
7 52 19 53 28 2z m429 -1 c19 -7 26 -17 26 -35 0 -28 -12 -32 -30 -10 -7 8
-30 18 -51 21 -41 7 -51 19 -21 27 30 8 50 7 76 -3z m141 -96 c22 -10 42 -19
44 -21 1 -1 -7 -30 -19 -65 -30 -85 -30 -201 -1 -278 12 -30 21 -57 21 -59 0
-1 -16 11 -35 28 -20 17 -53 40 -75 51 -30 15 -41 29 -49 57 -13 47 -14 118
-2 160 8 29 7 32 -20 44 -16 6 -32 9 -36 5 -3 -3 0 -6 8 -6 35 -1 39 -14 23
-75 -15 -57 -15 -102 3 -179 l6 -29 -31 21 c-95 68 -228 96 -239 51 -6 -21 -6
-21 -19 2 -19 34 -17 122 3 163 11 24 27 39 50 47 18 6 33 16 33 23 0 25 28
48 80 67 69 25 194 21 255 -7z"/>
<path d="M2992 962 c-230 -82 -295 -377 -118 -540 72 -66 118 -85 221 -90 109
-5 179 17 246 77 l43 38 -49 55 -50 55 -30 -25 c-100 -84 -243 -64 -294 41
-75 156 77 310 234 238 22 -10 49 -28 59 -40 l20 -22 48 48 c26 26 48 52 48
58 0 18 -61 71 -110 96 -63 32 -194 37 -268 11z"/>
<path d="M1580 656 l0 -317 83 3 82 3 3 91 3 92 92 4 c79 3 100 8 140 31 112
66 137 225 52 325 -55 64 -94 75 -287 80 l-168 4 0 -316z m319 128 c27 -34 26
-50 -4 -79 -20 -21 -34 -25 -85 -25 l-60 0 0 65 0 65 64 0 c58 0 67 -3 85 -26z"/>
<path d="M2150 748 c0 -249 5 -270 71 -337 55 -55 121 -81 209 -81 85 0 135
18 194 70 76 67 81 86 84 343 l3 228 -83 -3 -83 -3 -5 -205 c-3 -138 -9 -212
-18 -227 -48 -85 -174 -63 -202 35 -5 20 -10 119 -10 220 l0 182 -80 0 -80 0
0 -222z"/>
<path d="M3440 656 l0 -317 83 3 82 3 3 93 3 92 72 0 c115 0 179 28 228 98 34
50 40 162 11 218 -50 97 -99 116 -314 122 l-168 4 0 -316z m319 128 c27 -34
26 -50 -4 -79 -20 -21 -34 -25 -85 -25 l-60 0 0 65 0 65 64 0 c58 0 67 -3 85
-26z"/>
<path d="M288 407 c27 -18 84 -63 126 -101 107 -97 170 -142 254 -183 66 -31
81 -35 135 -31 35 2 84 14 112 27 l50 23 -90 24 c-98 27 -187 69 -335 159
-103 63 -191 99 -258 108 l-43 5 49 -31z"/>
<path d="M110 405 c0 -20 49 -93 97 -145 109 -118 241 -186 383 -197 44 -3 80
-4 80 -1 0 3 -24 18 -52 33 -66 34 -106 65 -235 181 -57 51 -122 102 -146 113
-39 19 -127 30 -127 16z"/>
<path d="M600 330 c41 -30 197 -102 247 -115 72 -19 154 -19 196 -1 34 14 72
52 103 100 l19 30 -25 -8 c-139 -43 -228 -51 -365 -31 -50 7 -100 15 -110 18
-55 15 -80 18 -65 7z"/>
</g>
</svg>
