<?xml version="1.0" standalone="no"?>
<!DOCTYPE svg PUBLIC "-//W3C//DTD SVG 20010904//EN"
 "http://www.w3.org/TR/2001/REC-SVG-20010904/DTD/svg10.dtd">
<svg version="1.0" xmlns="http://www.w3.org/2000/svg"
 width="357.000000pt" height="141.000000pt" viewBox="0 0 357.000000 141.000000"
 preserveAspectRatio="xMidYMid meet">

<g transform="translate(0.000000,141.000000) scale(0.100000,-0.100000)"
fill="#000000" stroke="none">
<path d="M2808 1393 c6 -2 18 -2 25 0 6 3 1 5 -13 5 -14 0 -19 -2 -12 -5z"/>
<path d="M2755 1380 c-33 -14 -83 -66 -107 -111 -38 -74 -34 -225 8 -260 9 -8
8 -1 -3 22 -22 45 -29 139 -13 194 15 53 79 130 124 150 17 7 27 13 21 14 -5
0 -19 -4 -30 -9z"/>
<path d="M3382 1361 c13 -15 24 -27 26 -26 6 5 -23 45 -36 50 -7 3 -3 -8 10
-24z"/>
<path d="M253 1363 c-16 -11 -23 -26 -23 -49 0 -27 7 -37 43 -61 55 -37 62
-81 21 -124 -34 -36 -73 -38 -110 -6 -23 20 -27 31 -26 69 2 56 -15 81 -58 81
-63 0 -110 -89 -89 -167 18 -66 64 -99 170 -120 22 -5 37 -27 95 -147 148
-304 170 -344 196 -353 14 -5 33 -6 42 -3 9 4 49 51 89 106 39 55 77 100 82
100 6 0 41 -43 79 -95 123 -171 128 -168 281 143 64 131 122 241 129 245 6 4
22 8 35 8 40 0 112 40 132 74 13 21 19 50 19 86 0 47 -5 61 -28 90 -22 25 -36
33 -62 33 -44 0 -63 -26 -55 -76 5 -33 1 -42 -24 -68 -38 -38 -74 -38 -112 0
-46 47 -38 84 29 130 39 27 43 70 10 101 -50 46 -156 9 -196 -70 -26 -51 -25
-83 7 -152 l22 -45 -37 -77 c-20 -42 -40 -76 -44 -76 -4 0 -33 44 -65 98 -114
193 -127 192 -251 -19 -25 -43 -49 -79 -53 -79 -4 0 -24 34 -44 76 l-36 77 21
40 c27 55 26 137 -2 178 -43 60 -139 86 -187 52z"/>
<path d="M3411 1300 c-1 -25 -25 -68 -45 -82 -8 -5 -7 -8 1 -8 18 0 55 67 50
92 -4 22 -4 21 -6 -2z"/>
<path d="M2907 1182 c-22 -24 -21 -55 2 -76 16 -14 43 -16 227 -13 l209 2
-210 3 c-222 2 -235 5 -235 48 0 40 19 43 221 47 l194 2 -196 3 c-179 2 -197
0 -212 -16z"/>
<path d="M3381 1081 c38 -12 71 -31 104 -60 l30 -26 -25 28 c-28 33 -90 67
-117 66 -12 0 -9 -3 8 -8z"/>
<path d="M2702 955 c21 -22 39 -37 41 -34 2 2 -15 19 -37 38 l-41 35 37 -39z"/>
<path d="M3522 968 c7 -15 15 -23 17 -17 2 6 -4 18 -13 27 -15 15 -15 15 -4
-10z"/>
<path d="M3546 899 c4 -19 10 -38 15 -43 4 -5 4 8 -1 29 -11 47 -22 59 -14 14z"/>
<path d="M2768 909 c10 -11 61 -14 255 -15 l242 0 -240 5 c-132 3 -247 10
-255 15 -12 7 -13 7 -2 -5z"/>
<path d="M3279 873 c15 -30 14 -49 -5 -67 -13 -14 -54 -16 -295 -16 -230 0
-285 -3 -309 -15 -29 -15 -57 -52 -47 -62 3 -2 8 5 12 16 14 47 44 51 345 51
267 0 281 1 300 20 24 24 25 49 4 76 -15 18 -15 18 -5 -3z"/>
<path d="M3551 803 c0 -12 -4 -30 -7 -40 -5 -17 -5 -17 6 0 6 10 9 28 7 40 -4
22 -4 22 -6 0z"/>
<path d="M3522 712 c-11 -25 -11 -25 4 -10 9 9 15 21 13 27 -2 6 -10 -2 -17
-17z"/>
<path d="M2611 692 c-2 -28 33 -83 60 -97 15 -8 41 -14 56 -14 27 2 27 2 3 6
-65 11 -87 30 -113 103 -4 11 -6 11 -6 2z"/>
<path d="M3479 653 l-24 -28 28 24 c25 23 32 31 24 31 -2 0 -14 -12 -28 -27z"/>
<path d="M3411 570 c-1 -19 -7 -42 -14 -51 -16 -21 -71 -49 -97 -49 -26 0 -81
28 -98 49 -11 14 -11 14 -6 -2 7 -21 74 -57 104 -57 32 0 94 36 109 62 7 14
11 38 8 54 -4 27 -4 27 -6 -6z"/>
<path d="M3048 583 c23 -2 61 -2 85 0 23 2 4 4 -43 4 -47 0 -66 -2 -42 -4z"/>
<path d="M2761 555 c-1 -40 69 -95 121 -95 28 0 101 40 104 58 1 7 0 8 -3 2
-7 -15 -79 -50 -103 -50 -47 0 -96 38 -112 85 l-6 20 -1 -20z"/>
<path d="M2991 554 c0 -11 3 -14 6 -6 3 7 2 16 -1 19 -3 4 -6 -2 -5 -13z"/>
<path d="M3181 554 c0 -11 3 -14 6 -6 3 7 2 16 -1 19 -3 4 -6 -2 -5 -13z"/>
<path d="M583 198 c2 -7 16 -52 31 -100 15 -49 28 -88 31 -88 2 0 13 30 25 66
25 73 29 72 56 -13 9 -29 19 -53 23 -53 9 0 63 191 56 198 -9 10 -21 -11 -40
-73 -19 -65 -17 -67 -51 29 l-18 49 -19 -54 c-11 -30 -22 -61 -25 -69 -3 -8
-14 15 -26 52 -12 40 -27 68 -35 68 -7 0 -11 -6 -8 -12z"/>
<path d="M1100 115 c0 -78 3 -95 15 -95 12 0 15 17 15 95 0 78 -3 95 -15 95
-12 0 -15 -17 -15 -95z"/>
<path d="M1260 160 c0 -47 -1 -50 -22 -45 -39 10 -63 -18 -59 -68 1 -22 38
-37 74 -30 l27 5 0 94 c0 56 -4 94 -10 94 -5 0 -10 -23 -10 -50z m-10 -94 c0
-14 -4 -27 -9 -30 -18 -11 -41 6 -41 30 0 19 5 24 25 24 20 0 25 -5 25 -24z"/>
<path d="M1450 115 c0 -78 3 -95 15 -95 11 0 15 11 15 40 0 54 27 54 58 0 12
-22 27 -40 32 -40 15 0 12 11 -9 47 -19 31 -19 31 0 49 10 9 19 27 19 40 0 37
-26 54 -81 54 l-49 0 0 -95z m101 59 c19 -23 -1 -48 -40 -52 -30 -3 -31 -2
-31 32 0 33 2 36 29 36 16 0 34 -7 42 -16z"/>
<path d="M1770 116 l0 -94 27 -5 c36 -7 73 8 74 30 4 50 -20 78 -58 68 -22 -5
-23 -2 -23 45 0 27 -4 50 -10 50 -6 0 -10 -38 -10 -94z m80 -50 c0 -30 -30
-43 -47 -21 -16 23 -5 45 23 45 19 0 24 -5 24 -24z"/>
<path d="M2275 186 c-20 -30 -11 -51 29 -70 42 -20 58 -39 50 -59 -10 -27 -64
-32 -64 -6 0 5 -7 9 -16 9 -23 0 -12 -23 19 -38 22 -11 32 -11 55 0 22 11 27
20 27 48 0 30 -5 37 -42 58 -24 13 -43 30 -43 38 0 21 29 29 52 15 26 -16 47
-2 23 16 -30 21 -72 16 -90 -11z"/>
<path d="M2070 154 c0 -9 -8 -23 -17 -30 -17 -13 -17 -13 0 -14 14 0 17 -9 17
-45 0 -33 4 -45 15 -45 11 0 15 12 15 44 0 26 5 47 13 50 10 5 10 7 0 12 -7 3
-13 14 -13 25 0 10 -7 19 -15 19 -8 0 -15 -7 -15 -16z"/>
<path d="M3012 159 c2 -6 8 -10 13 -10 5 0 11 4 13 10 2 6 -4 11 -13 11 -9 0
-15 -5 -13 -11z"/>
<path d="M3110 150 c0 -11 -7 -20 -15 -20 -8 0 -15 -4 -15 -10 0 -5 7 -10 15
-10 11 0 15 -12 15 -45 0 -25 5 -45 10 -45 6 0 10 20 10 45 0 33 4 45 15 45 8
0 15 5 15 10 0 6 -7 10 -15 10 -8 0 -15 9 -15 20 0 11 -4 20 -10 20 -5 0 -10
-9 -10 -20z"/>
<path d="M857 102 c-24 -27 -21 -59 8 -78 23 -15 27 -15 50 0 30 20 33 56 7
79 -24 22 -45 21 -65 -1z m60 -28 c3 -8 -2 -23 -11 -32 -15 -15 -17 -15 -32 0
-9 9 -14 24 -11 32 8 21 46 21 54 0z"/>
<path d="M985 111 c-3 -2 -5 -24 -5 -48 0 -32 4 -43 15 -43 11 0 15 11 15 36
0 31 3 36 20 31 24 -6 35 7 17 21 -12 11 -53 12 -62 3z"/>
<path d="M1648 108 c-31 -24 -27 -71 8 -86 28 -13 58 -3 68 24 9 25 7 33 -14
54 -23 23 -40 25 -62 8z m59 -34 c3 -8 -2 -23 -11 -32 -15 -15 -17 -15 -32 0
-9 9 -14 24 -11 32 8 21 46 21 54 0z"/>
<path d="M1927 102 c-39 -43 2 -103 57 -83 20 8 26 17 26 40 0 54 -50 80 -83
43z m60 -28 c3 -8 -2 -23 -11 -32 -16 -16 -18 -16 -31 1 -7 11 -11 25 -8 33 7
19 42 18 50 -2z"/>
<path d="M2430 81 c0 -47 23 -75 54 -67 12 3 27 6 34 6 9 0 12 14 10 47 -3 56
-21 64 -26 13 -6 -63 -52 -58 -52 6 0 19 -4 34 -10 34 -5 0 -10 -18 -10 -39z"/>
<path d="M2577 114 c-1 -1 -1 -23 1 -48 5 -54 22 -62 22 -10 0 31 3 35 23 32
17 -2 23 -11 25 -35 2 -18 7 -33 12 -33 5 0 10 15 12 32 2 25 8 34 25 36 17 3
24 -3 29 -22 3 -14 3 -30 -1 -35 -3 -6 1 -11 9 -11 22 0 21 52 -2 80 -14 18
-23 21 -43 14 -13 -4 -28 -6 -34 -4 -12 4 -74 8 -78 4z"/>
<path d="M2794 111 c-2 -2 -4 -24 -4 -48 0 -32 4 -43 15 -43 10 0 15 11 15 35
0 31 3 35 25 35 22 0 25 -4 25 -35 0 -44 18 -46 22 -3 5 57 57 48 58 -9 0 -13
5 -23 10 -23 16 0 12 53 -6 78 -16 23 -48 29 -59 12 -4 -6 -13 -7 -23 -1 -17
9 -69 10 -78 2z"/>
<path d="M3020 71 c0 -28 5 -51 10 -51 6 0 10 20 10 44 0 25 -4 48 -10 51 -6
4 -10 -13 -10 -44z"/>
</g>
</svg>
