<?xml version="1.0" standalone="no"?>
<!DOCTYPE svg PUBLIC "-//W3C//DTD SVG 20010904//EN"
 "http://www.w3.org/TR/2001/REC-SVG-20010904/DTD/svg10.dtd">
<svg version="1.0" xmlns="http://www.w3.org/2000/svg"
 width="1000.000000pt" height="951.000000pt" viewBox="0 0 1000.000000 951.000000"
 preserveAspectRatio="xMidYMid meet">

<g transform="translate(0.000000,951.000000) scale(0.100000,-0.100000)"
fill="#000000" stroke="none">
<path d="M9390 2508 l0 -1203 151 -86 152 -86 151 87 151 88 3 1201 2 1201
-305 0 -305 0 0 -1202z"/>
<path d="M2 3403 l3 -298 432 -3 433 -2 2 -897 3 -898 152 -88 152 -88 153 89
153 88 3 897 2 897 393 2 392 3 3 298 2 297 -391 0 -392 0 -157 -90 -157 -90
-156 90 -156 90 -436 0 -435 0 2 -297z"/>
<path d="M2857 3693 c-3 -5 -2 -419 1 -921 l5 -913 81 -47 c45 -26 341 -198
658 -381 l577 -333 658 380 658 380 3 921 2 921 -305 0 -305 0 0 -744 0 -744
-356 -205 -355 -206 -352 204 -352 203 -6 594 c-3 326 -7 662 -8 746 l-1 152
-299 0 c-165 0 -302 -3 -304 -7z"/>
<path d="M6400 3527 l-305 -174 -2 -264 c-2 -145 1 -610 5 -1034 l7 -769 140
-82 c77 -45 147 -83 155 -83 8 0 80 37 160 83 l145 84 3 857 c2 810 3 857 20
851 9 -4 169 -95 355 -202 l337 -196 340 196 c186 108 346 199 355 202 13 5
15 -22 15 -238 0 -135 3 -521 7 -859 l6 -615 142 -82 c78 -45 147 -82 154 -82
6 0 78 39 160 86 l148 85 -5 1022 c-3 748 -7 1025 -16 1033 -6 6 -148 89 -316
184 l-305 173 -35 -21 c-19 -11 -173 -101 -342 -200 l-307 -180 -353 199
c-194 109 -355 199 -358 199 -3 0 -142 -78 -310 -173z"/>
<path d="M7940 290 l0 -280 40 0 c29 0 40 4 40 15 0 19 2 19 45 -6 27 -16 46
-20 76 -16 92 12 119 59 119 207 0 110 -10 143 -56 179 -36 28 -112 29 -147 1
-14 -11 -28 -20 -31 -20 -3 0 -6 45 -6 100 l0 100 -40 0 -40 0 0 -280z m219
24 c29 -37 31 -180 2 -215 -25 -31 -83 -32 -114 -1 -19 20 -22 33 -22 113 0
83 2 92 24 110 35 28 85 25 110 -7z"/>
<path d="M9060 530 l0 -40 40 0 40 0 0 40 0 40 -40 0 -40 0 0 -40z"/>
<path d="M8817 523 c-4 -3 -7 -30 -7 -60 0 -46 -2 -53 -20 -53 -16 0 -20 -7
-20 -35 0 -28 4 -35 20 -35 19 0 20 -7 20 -125 0 -155 11 -189 67 -204 66 -19
73 -16 73 29 0 36 -3 40 -25 40 -32 0 -37 19 -33 150 l3 105 28 3 c24 3 27 8
27 38 0 31 -2 34 -30 34 l-30 0 0 60 0 60 -33 0 c-19 0 -37 -3 -40 -7z"/>
<path d="M7187 403 c-4 -3 -7 -93 -7 -200 l0 -193 40 0 40 0 0 124 c0 67 5
137 11 154 14 42 59 60 105 43 32 -11 36 -11 54 11 11 13 19 28 20 35 1 37
-111 45 -154 12 l-27 -21 -6 21 c-4 16 -13 21 -37 21 -18 0 -36 -3 -39 -7z"/>
<path d="M7573 391 c-53 -33 -68 -73 -68 -181 0 -77 4 -101 20 -129 29 -50 64
-71 126 -77 44 -4 62 -1 98 18 65 34 81 71 81 186 0 100 -9 129 -55 172 -37
35 -154 41 -202 11z m160 -82 c13 -16 17 -40 17 -99 0 -98 -20 -130 -81 -130
-69 0 -97 53 -87 162 7 68 43 103 97 94 20 -3 44 -15 54 -27z"/>
<path d="M8432 390 c-54 -33 -75 -95 -70 -202 4 -93 16 -121 69 -160 39 -30
117 -34 172 -10 66 29 87 74 87 189 0 102 -16 145 -69 180 -46 31 -141 32
-189 3z m161 -81 c13 -16 17 -40 17 -101 0 -70 -3 -82 -25 -103 -47 -48 -125
-25 -141 40 -3 14 -4 53 -2 87 4 52 9 65 33 86 23 19 36 23 64 18 20 -3 44
-15 54 -27z"/>
<path d="M9060 210 l0 -200 40 0 40 0 0 200 0 200 -40 0 -40 0 0 -200z"/>
<path d="M9322 390 c-57 -35 -72 -72 -72 -180 0 -110 16 -153 71 -185 66 -39
217 -18 236 31 3 10 -5 26 -21 40 l-26 25 -27 -20 c-37 -30 -97 -28 -128 4
-22 21 -25 33 -25 99 0 90 4 103 41 121 38 20 68 19 108 -6 l34 -21 25 26 c22
21 24 27 12 41 -40 48 -167 62 -228 25z"/>
<path d="M9698 394 c-50 -26 -71 -98 -48 -158 12 -34 40 -47 124 -57 38 -5 78
-12 88 -15 23 -7 24 -56 2 -75 -27 -22 -114 -17 -159 10 l-39 23 -23 -27 c-28
-31 -24 -39 29 -66 83 -42 211 -34 259 17 16 17 24 40 27 77 4 45 1 57 -19 81
-25 28 -77 45 -142 46 -51 0 -77 15 -77 45 0 45 73 59 150 29 38 -15 42 -15
60 1 30 27 24 44 -22 65 -53 24 -170 26 -210 4z"/>
</g>
</svg>
