<?xml version="1.0" standalone="no"?>
<!DOCTYPE svg PUBLIC "-//W3C//DTD SVG 20010904//EN"
 "http://www.w3.org/TR/2001/REC-SVG-20010904/DTD/svg10.dtd">
<svg version="1.0" xmlns="http://www.w3.org/2000/svg"
 width="2400.000000pt" height="1260.000000pt" viewBox="0 0 2400.000000 1260.000000"
 preserveAspectRatio="xMidYMid meet">

<g transform="translate(0.000000,1260.000000) scale(0.100000,-0.100000)"
fill="#000000" stroke="none">
<path d="M12300 2244 c-265 -70 -420 -337 -355 -612 23 -99 63 -170 135 -243
140 -141 334 -183 531 -115 69 24 177 89 186 112 3 8 -6 27 -20 43 l-24 30
-52 -39 c-193 -145 -462 -109 -594 80 -103 148 -103 365 2 511 42 60 87 95
166 131 43 20 66 23 162 23 l111 0 93 -47 c85 -44 93 -46 106 -30 32 41 33 48
5 69 -121 89 -308 125 -452 87z"/>
<path d="M7742 1897 l3 -353 37 -76 c44 -88 95 -138 182 -179 183 -85 407 -50
535 86 100 106 111 161 111 573 l0 302 -49 0 -50 0 -3 -337 -3 -338 -26 -56
c-52 -111 -155 -179 -284 -187 -142 -9 -260 55 -320 173 l-30 59 -3 343 -3
343 -50 0 -50 0 3 -353z"/>
<path d="M9270 1755 l0 -495 208 0 c154 0 223 4 267 15 216 57 336 226 337
474 0 266 -138 443 -381 487 -44 8 -150 13 -253 14 l-178 0 0 -495z m482 376
c76 -29 160 -106 193 -176 78 -166 44 -398 -76 -510 -86 -80 -173 -105 -369
-105 l-130 0 0 411 0 411 163 -4 c138 -4 171 -8 219 -27z"/>
<path d="M10907 2138 c-25 -62 -115 -285 -200 -495 l-155 -383 52 0 52 0 49
123 c26 67 51 126 55 130 12 13 442 99 450 90 4 -4 37 -83 75 -175 l68 -168
49 0 c44 0 49 2 44 18 -4 9 -93 232 -198 495 l-192 477 -52 0 -52 0 -45 -112z
m183 -232 c44 -109 79 -200 77 -202 -7 -7 -350 -75 -354 -70 -3 3 34 101 82
218 48 117 91 224 96 237 5 13 11 22 14 20 2 -2 40 -94 85 -203z"/>
<path d="M13460 1755 l0 -495 45 0 45 0 0 495 0 495 -45 0 -45 0 0 -495z"/>
<path d="M14140 2205 l0 -45 180 0 180 0 0 -450 0 -450 50 0 50 0 0 450 0 450
180 0 180 0 0 45 0 45 -410 0 -410 0 0 -45z"/>
<path d="M15416 2223 c9 -16 95 -145 191 -288 l173 -260 0 -207 0 -208 50 0
50 0 0 215 0 215 178 268 c98 147 182 273 186 280 5 9 -6 12 -46 12 l-53 0
-155 -226 c-85 -124 -158 -227 -161 -229 -3 -3 -78 99 -165 225 l-159 229 -54
1 -53 0 18 -27z"/>
</g>
</svg>
